<?xml version="1.0" standalone="yes"?>
<svg xmlns="http://www.w3.org/2000/svg" width="238" height="227">
<path style="fill:#b3b3aa; stroke:none;" d="M46 69L44.5 69.4444L42.9444 70.0833L41 71.0556L39 72.1944L38 72.8056L37 73.3889L35 74.6111L33.0556 75.75L32.5 76L31 77L31 174L32.5 175L33.0556 175.222L34.0556 175.806L35 176.25L37 177.389L39 178.611L41 179.75L42 180.222L43 180.778L44 181.25L46 182.389L48 183.611L49 184.194L51 185.389L53 186.611L55 187.75L56 188.222L57 188.778L58 189.25L59 189.833L60 190.389L62 191.611L63 192.194L65 193.389L67 194.611L69 195.75L70 196.25L72 197.389L74 198.611L76 199.75L77 200.222L79 201.25L80 201.833L81 202.389L83 203.611L84 204.194L86 205.389L88 206.611L89 207.194L91 208.389L93 209.611L94 210.167L95 210.75L96 211.222L98 212.25L99 212.833L100 213.389L102 214.611L104 215.75L105 216.25L107 217.389L109 218.611L110 219.167L112 220.139L114 220.667L116 220.5L118 219.75L119 219.222L120 218.75L121 218.167L123 217L124 216.389L126 215.194L127 214.611L129 213.389L130 212.833L131 212.25L132 211.778L134 210.75L135 210.167L136 209.611L138 208.389L139 207.806L141 206.611L143 205.389L145 204.25L146 203.75L148 202.611L150 201.389L152 200.25L153 199.75L155 198.611L157 197.389L159 196.25L160 195.75L162 194.611L164 193.389L166 192.194L167 191.639L168 191.056L169 190.528L171 189.472L172 188.944L174 187.806L175 187.194L176 186.611L178 185.389L179 184.806L181 183.611L183 182.389L185 181.25L186 180.778L187 180.222L188 179.75L190 178.611L192 177.389L194 176.25L194.944 175.806L195.944 175.222L196.5 175L198 174L198 77L196.5 76L195.944 75.75L194.944 75.1389L194 74.6111L192 73.3889L191 72.8056L189 71.6111L187 70.3889L185 69.25L183 68.2222L182 67.75L180.056 66.5833L179.056 65.8056L177 64L190 64L193 64L195 64L196 63.9722L196.944 63.9444L197.944 63.75L198.5 63.7222L200 63L200 60L199 59L177 59L174 59L173 59L171 59L170 58.9722L169 58.9167L167 58.5833L165 57.9167L163 56.9444L162 56.3611L160 55.1944L159 54.6111L157 53.3889L156 52.8056L154 51.6111L152 50.3889L150 49.25L149 48.7778L147 47.75L145 46.6111L143 45.3889L141 44.1944L140 43.6111L138 42.3889L136 41.25L135 40.75L133 39.6111L131 38.3889L129 37.25L128 36.7778L126 35.75L124 34.6111L122 33.3889L121 32.8056L119 31.6389L118 31.0833L117 30.6389L115 30.1389L113 30.3056L111 31.0833L110 31.6389L108 32.8056L107 33.3889L105 34.6111L103 35.75L102 36.2222L101 36.7778L100 37.25L98 38.3889L96 39.6111L94 40.75L93 41.25L91 42.3889L89 43.6111L88 44.1944L86 45.3889L85 45.9722L83 46.8333L82 47.0278L80 46.6667L79 46.2222L77 45.3889L75 44.6944L74 44.4167L73 44.2222L72 44.0833L70 44L69 44L67 44L66 44L64 44.0833L62 44.4722L61 44.8611L59 45.7778L58 46.25L56 47.3889L55 48.0278L53.0833 49.4167L51.4167 51.0833L50.6944 52.0278L49.3889 54L48.25 56L47.7778 57L46.8611 59L46.4722 60L46.0833 62L46 64L46 65L46 65.9444L46 69M68 33L66.8611 34.0833L66.2778 35.2778L66.1111 36.0833L66.0556 37.9444L66.25 38.9444L66.2778 39.5L67 41L70 41L71 40L71 38.5L70.8889 36.9444L70.3333 35.1111L69.3889 33.7778L68 33M115 35L116.5 36L117.056 36.2222L118.056 36.8056L119 37.25L121 38.3889L123 39.6111L125 40.8056L126 41.3889L128 42.6111L130 43.75L131 44.25L133 45.3889L135 46.6111L137 47.75L138 48.2222L140 49.25L141 49.8333L142 50.3889L144 51.6111L145 52.1944L147 53.3889L149 54.6111L150 55.1944L151 55.8056L152.944 56.9444L153.5 57.3056L155 58L154.222 58.7222L153.694 58.75L152.889 58.9444L151.972 58.9722L151 59L150 59L148 59L146 59.0278L144 59.3056L142.056 60.0278L141.5 60.3333L140 61L142.056 62.7222L143.056 63.3333L145 63.8889L146 63.9722L147 64L148 64L150 64L159 64L161 64L162 64L163 64.0278L165 64.25L166 64.5L168 65.4167L170 66.6111L171 67.1667L172 67.75L174 68.7778L175 69.25L177 70.3889L179 71.6111L180 72.1944L182 73.3889L184 74.6111L185 75.1944L187 76.3889L189 77.6111L189.944 78.1389L190.944 78.75L191.5 79L193 80L193 85L172 85L164 85L162 85L160 85.0278L159 85.0833L157.056 85.3889L155.5 85.75L154 86L154 90L193 90L193 146L193 161L193 164L193 166L192.972 168L192.944 168.944L192.75 169.944L192.722 170.5L192 172L191.278 171.222L191.25 170.694L191.056 169.889L191.028 168.972L191 167L191 165L191 162L191 140L191 137L191 136L191 135L190.917 133L190.5 131L189.5 129L188.75 128L186.972 126L185 124L183 122L171 110L168 107L167 106L165 104.111L163 102.722L162 102.333L161 102.111L159 102L158 102L155 102L143 102L100 102L75 102L71 102L69 102L67 102.028L66 102.111L64 102.722L62 104.111L61 105.028L59 107L57 109L50 116L48 118L47 119L46.0278 120L45.0833 120.972L43.3889 122.778L42.6389 123.611L41.8611 124.361L41.1389 125.139L39.6667 126.528L38.8333 127.083L38.4167 127.472L37 128L37 170L36.2778 169.222L36.25 168.694L36.0556 167.889L36.0278 166.972L36 165L36 164L36 161L36 144L36 80L37.5 79L38.0556 78.75L40 77.6111L42 76.3889L43 75.8333L43.9444 75.2778L44.9444 74.8333L45.5 74.5L47 74L48.0556 75.5L48.3889 76.0556L49.6944 78L50.4167 79L52.0833 81L54 82.9167L56 84.5278L58 85.7222L59 86.1667L60 86.6111L61 86.9722L63 87.6667L64 88L66 88.5833L67 88.75L68 88.8333L70 88.6111L71 88.3611L73 87.8611L74 87.6111L76 86.9722L77 86.5833L79 85.5833L81 84.3056L82 83.5833L83.9167 81.9167L85.5833 80L86.9722 78L87.5833 77L88.1111 76L88.9722 74L89.6667 72L90.3056 70L90.5833 69L90.8889 67L90.8889 66L90.6111 64L90.3611 63L89.8333 61L89.5556 60L88.75 58L88.2222 57L87.7778 56L87.25 55L86.8611 54.0556L86.2778 52.5L86 51L87.5 50.0278L88.0556 49.8333L89.0556 49.3333L90 48.9444L92 47.9167L93 47.3056L95 46.0278L96 45.3889L98 44.25L99 43.75L101 42.6111L103 41.3889L105 40.1944L106 39.6111L108 38.3889L110 37.25L111.944 36.25L112.944 35.8333L113.5 35.5L115 35M51 38L51.0278 39.5L51.25 41.0278L51.5 41.9167L52.4444 43.5278L54 45L55 45L57 44L56.9167 42.5L56.5556 41L56.1389 40.0556L55.9722 39.5L55 38L51 38M81 38L80.4167 40.0556L80.1389 41.9444L80.2778 43.5L81 45L82.4722 44.6389L83.8056 43.6667L84.5 42.8889L85.0556 42.0278L85.7222 40.5L86 39L84.5 38.2778L84 38.25L83 38.0556L81 38M40 49L40 53L41.5 53.6667L42.0556 53.9722L43 54.3889L44.5 54.8889L46 55L47 54L47 51L45.5 50.0278L43.9444 49.4444L42.0556 49.0833L40 49M64 49.25L65 49.0833L66 49.0278L68 49L70 49.0278L71 49.0833L73 49.4167L75 50.0833L77 51.0833L79 52.4167L80.9167 54.0833L81.75 55.0278L82.5278 56L83.1389 57L83.7222 58L84.5556 60L84.8333 61L85.3611 63L85.6111 64L85.8889 66L85.8889 67L85.6111 69L85.3611 70L85.1111 71L84.3889 73L83.8889 74L82.5833 76L81.7778 77L79.9722 78.9167L79 79.75L78 80.5278L76 81.7222L75 82.1667L73 82.9722L71 83.5833L69 83.8889L68 83.8889L66 83.6111L65 83.3611L63 82.8333L62 82.5556L61 82.1389L60 81.7222L58 80.5278L56.0833 78.9167L54.4722 77L53.8611 76L52.7778 74L51.8611 72L51.4722 71L51.0833 69L51 67L51 66L51 65L51.0833 63L51.4722 61L51.8611 60L52.7778 58L53.25 57L53.8611 56L55.25 54.0833L57.0278 52.4722L59 51.25L60 50.7778L61 50.25L63 49.4722L64 49.25M89 53L91.0556 54.3056L92.0556 54.6111L93.9722 54.25L95.6667 52.9444L96.6389 51.5L97 50L95.5 49.2778L94.9444 49.2778L93.9444 49.1389L92.0833 49.5L90.5 50.4444L89.5278 51.5833L89 53M36 64L36 68L37 69L39.0556 68.9167L40.9444 68.5833L43 68L43 64L36 64M93 67L94.5 68.1389L96.0556 68.6944L97 68.7778L97.9722 68.6389L98.8889 68.2778L99.6667 67.7222L100.639 66.4722L101 65L99.5 64.2778L98.9444 64.25L97.9444 64.0556L96.0833 64.1111L94.5 64.6667L93.5278 65.6111L93 67M111 73L111.25 75L111.278 75.5556L112 77L115.056 77L117 77L119 76.9722L119.972 76.8889L120.889 76.6667L121.667 76.2778L122.278 75.7222L122.667 74.9444L123 73L120.944 72.4167L119.944 72.2222L119 72.0833L117 72L116 72.0278L115 72.0833L113.056 72.4167L111 73M130 73L130.25 75L130.278 75.5556L131 77L158 77L163 77L165 77L166 77L168 77L169 76.9722L169.944 76.9444L170.944 76.75L171.5 76.7222L173 76L173 73L172 72L146 72L139 72L137 72L136 72L134 72.0833L133.056 72.2222L132.056 72.4167L130 73M40 79L40.0556 81L40.25 82L40.2778 82.5L41 84L42.5 83.7222L44.0278 83.0556L44.8889 82.5L45.6667 81.8056L46.6389 80.4722L47 79L45.5 78.2778L43.9444 78.1389L42.0556 78.4167L40 79M90 78L90 82L91 82L93 84L94.4444 83.75L95.5556 83.4167L97 83L96.6667 80.9722L96.2778 80.0556L94.8889 78.7222L93.0556 78.1111L91.5 78L90 78M54 87L52.6111 88.5L51.6667 90.0556L51.1667 91.9444L51.2778 93.5L52 95L53.5 94.6389L54.9444 93.6667L56.2778 91.9722L56.7778 90.0833L56.3333 88.5L55.7222 87.9167L54 87M81 87L80.2778 88.5L80.2778 89.0556L80.1389 90.0556L80.5 91.9722L81.5 93.6667L82.1944 94.2778L83.0278 94.6667L85 95L85.5 92.9444L85.4167 91L85.0833 90.0556L84.2222 88.5L83 87L81 87M67 91L66.2778 92.5L66.25 93.0556L66.0556 94.0556L66.0556 95.9444L66.25 96.9444L66.2778 97.5L67 99L68.4722 98.6389L69.7222 97.6667L70.6667 95.9722L70.8889 95.0556L71 93.5L71 92L69.5556 91.5833L68.4444 91.25L67 91M71 107L70.6389 108.5L69.6667 110.056L68.8889 111L67.9722 112L66 114L65 115L63 117L61.1111 118.944L60.3056 119.944L59.7778 120.5L59 122L104 122L118 122L121 122L122 122L124 121.972L125 121.889L127 121.278L128 120.667L129 119.889L131 118L133 116L136 113L137 112L139 110.028L141 108.333L143 107.333L144 107.111L145 107.028L146 107L148 107L149 107L151 107L157 107L156.639 108.5L155.667 110.056L154.889 111L153.972 112L153 113L151 115L150 116L147 119L144 122L143 123L141 125L140 125.972L138 127.667L137 128.278L136 128.667L134 128.972L132 129L130 129L127 129L108 129L45 129L45.3611 127.5L46.3333 125.944L48.0278 124L49 123L50 122L53 119L58 114L60 112L62 110.028L63 109.111L65 107.722L67 107.111L67.9444 107.028L69.5 107L71 107M87 107L87 109L86 110L78 110L78 108L79 107L87 107M103 107L102.222 108.389L100.889 109.333L99 109.889L98 109.972L97.0556 110L96.0556 110L94 110L94.7778 108.611L96.1111 107.667L98 107.111L99 107.028L99.9444 107L100.944 107L103 107M118 107L117.222 108.389L115.889 109.333L114 109.889L113.056 109.972L112.056 110L110 110L110 108L111 107L118 107M134 107L134 109L133 110L125 110L125 108L126 107L134 107M182 129L145 129L145.361 127.5L146.333 125.944L147.111 125L148.028 124L149 123L151 121L153 119L156 116L158 114L160 112.111L161 111.333L162 110.75L164 110.444L166 111.333L167 112.111L168 113.028L170 115L171 116L174 119L176 121L177 122L178.972 124L179.889 125L180.667 125.944L181.639 127.5L182 129M80 115L79.2222 116.139L78.6944 116.333L77.8889 116.722L76 116.972L74.0556 117L73.0556 117L71 117L71 115L80 115M95 115L94.2222 116.139L93.6944 116.333L92.8889 116.722L91.9722 116.889L91 116.972L90.0556 117L89.0556 117L87 117L87 115L95 115M111 115L110.222 115.972L109.694 116.139L108.889 116.556L107 116.917L105.056 117L103 117L103 115L111 115M127 115L126.222 116.139L125.694 116.333L124.889 116.722L123 116.972L121.056 117L120.056 117L118 117L118 115L127 115M135 134L136 135L136 179L74 179L74 141L73 140L61 140L58 140L57 140L55 140.028L54 140.083L52.0556 140.389L50.5 140.75L49 141L49 178L47.5 177.5L46.9444 177.167L45.9444 176.722L44.1111 175.528L42.7222 173.917L42.3333 172.972L42.1111 172L42 170L42 169L42 167L42 162L42 134L135 134M186 135L186 164L186 168L186 170L185.917 172L185.5 173.917L184.5 175.528L183.75 176.167L181.972 177.361L181 177.917L179 178.694L178 178.889L177 178.972L175 179L174 179L171 179L141 179L141 135L142 134L169 134L177 134L179 134L180 134L182 134.083L182.944 134.222L183.944 134.417L186 135M92 140L91 141L91 169L118 169L119 168L119 141L118 140L92 140M149 141L149 168L151.056 168.583L152.056 168.778L153 168.917L155 169L157 169L162 169L177 169L178 168L178 141L175.944 140.417L174.944 140.222L174 140.083L172 140L171 140L169 140L163 140L157 140L155 140L153 140.083L152.056 140.222L151.056 140.417L149 141M69 145L69 179L54 179L54 146L55 145L69 145M113 145L114 146L114 152L96 152L95 151L95 146L96 145L113 145M161 145L161 164L155 164L155 146L156 145L161 145M172 145L173 146L173 164L167 164L166 163L166 146L167 145L172 145M113 157L114 158L114 164L96 164L95 163L95 158L96 157L113 157M61 184L169 184L168.222 185.056L167.694 185.389L166.889 186.028L165 187.083L164 187.5L163 187.75L162 187.917L160 188L159 188L157 188L153 188L119 188L118 189L118 193L152 193L151.222 194.417L150.694 194.806L149.889 195.583L148.972 196.167L147 197.389L145 198.611L144 199.167L143 199.75L141 200.778L140 201.25L139 201.833L138 202.389L136 203.611L134 204.806L133 205.389L131 206.611L130 207.194L128 208.389L126 209.611L124 210.75L123 211.222L122 211.778L121 212.25L120 212.833L119 213.389L117.056 214.611L116.5 214.944L115 216L113.5 215.472L112.944 215.111L111.944 214.583L110 213.389L109 212.833L108 212.25L106 211.222L105 210.75L104 210.167L103 209.611L101 208.389L100 207.806L99 207.194L98 206.611L96.0278 205.389L94.3333 204.222L93.7222 203.583L93.3611 203.222L93 202L117 202L117 198L116 197L93 197L88 197L86 197L85 197L83 196.917L81 196.5L80 196.083L79 195.583L77 194.389L75 193.25L74 192.75L72 191.639L71 191.056L70 190.528L68 189.472L67 188.944L66 188.361L65 187.806L64 187.194L62.0556 186.056L61.5 185.694L60 185L61 184M92 188L91 189L91 193L93.0556 193L94.0556 193L95 192.972L95.9444 192.944L96.9444 192.75L97.5 192.722L99 192L99 189L98 188L92 188M129 197L128 198L128 202L130.056 202L131.056 202L132 201.972L132.972 201.889L133.889 201.667L135.278 200.722L135.667 199.944L136 198L133.944 197.417L132.056 197.083L131.056 197.028L129 197z"/>
</svg>
