<?xml version="1.0" standalone="yes"?>
<svg xmlns="http://www.w3.org/2000/svg" width="443" height="399">
<path style="fill:#b3b3aa; stroke:none;" d="M159 97L157.5 97.2778L155.944 97.9167L155 98.4167L153 99.6111L151 100.806L150 101.389L148 102.611L147.056 103.139L146.056 103.75L145.5 104L144 105L144 202L145.5 203L146.056 203.25L148 204.389L150 205.611L151 206.167L152 206.75L153 207.222L154 207.778L155 208.25L157 209.389L159 210.611L161 211.75L162 212.25L164 213.389L166 214.611L167 215.194L169 216.389L171 217.611L173 218.75L175 219.778L176 220.25L178 221.389L180 222.611L181 223.194L183 224.389L185 225.611L187 226.75L188 227.222L189 227.778L190 228.25L192 229.389L194 230.611L196 231.75L197 232.25L198 232.833L200 234L201 234.611L203 235.806L204 236.389L206 237.611L207 238.167L208 238.75L210 239.778L211 240.25L212 240.833L213 241.389L215 242.611L216 243.194L218 244.389L220 245.611L221 246.167L222 246.75L223 247.222L225 248.139L227 248.667L229 248.5L231 247.75L232 247.222L233 246.75L234 246.167L236 245L237 244.389L239 243.194L240 242.611L242 241.389L243 240.833L244 240.25L245 239.778L247 238.75L248 238.167L249 237.611L251 236.389L252 235.806L254 234.611L256 233.389L258 232.25L259 231.75L261 230.611L263 229.389L265 228.25L266 227.778L267 227.222L268 226.75L270 225.611L272 224.389L274 223.194L275 222.611L277 221.389L278 220.833L279 220.25L280 219.778L281 219.222L282 218.75L284 217.611L286 216.389L288 215.194L289 214.611L291 213.389L292 212.806L294 211.611L296 210.389L298 209.25L299 208.778L300 208.222L301 207.778L303 206.75L304 206.167L305 205.611L307 204.389L308.944 203.25L309.5 203L311 202L311 105L309.5 104L308.944 103.75L307.944 103.139L307 102.611L305 101.389L304 100.806L302 99.6111L300 98.3889L298 97.25L296 96.2222L295 95.75L293.056 94.5833L292.056 93.8055L290 92L303 92L306 92L308 92L309 91.9722L309.944 91.9445L310.944 91.75L311.5 91.7222L313 91L313 88L312 87L290 87L287 87L286 87L284 87L283 86.9722L282 86.9167L280 86.5833L278 85.9167L276 84.9445L275 84.3611L273 83.1945L272 82.6111L270 81.3889L269 80.8055L267 79.6111L265 78.3889L263 77.25L261 76.2222L260 75.75L258 74.6111L256 73.3889L254 72.1945L253 71.6111L251 70.3889L249 69.25L248 68.75L246 67.6111L244 66.3889L242 65.25L241 64.7778L239 63.75L237 62.6111L235 61.3889L234 60.8055L232 59.6389L231 59.0833L230 58.6389L228 58.1389L226 58.3055L224 59.0833L223 59.6389L221 60.8055L220 61.3889L218 62.6111L216 63.75L215 64.2222L214 64.7778L213 65.25L211 66.3889L209 67.6111L207 68.75L206 69.25L204 70.3889L202 71.6111L201 72.1945L199 73.3889L198 73.9722L196 74.8333L195 75.0278L193 74.6667L192 74.2222L190 73.3889L188 72.6945L187 72.4167L186 72.2222L185 72.0833L183 72L182 72L180 72L179 72L177 72.0833L175 72.4722L174 72.8611L172 73.7778L171 74.25L169 75.3889L168 76.0278L166.083 77.4167L164.417 79.0833L163.694 80.0278L162.389 82L161.25 84L160.778 85L159.861 87L159.472 88L159.083 90L159 92L159 93L159 93.9445L159 97M180 61L179.278 62.5L179.25 63.0555L179.056 64.0555L179.028 65L179 65.9445L179 66.9445L179 69L183 69L184 68L184 66.5L183.889 64.9445L183.722 64.0555L183.139 62.5L182 61L180 61M228 63L229.5 64L230.056 64.2222L232 65.25L234 66.3889L236 67.6111L237 68.1945L239 69.3889L241 70.6111L242 71.1945L244 72.3889L246 73.6111L247 74.1667L248 74.75L249 75.2222L250 75.7778L251 76.2222L253 77.25L254 77.8333L255 78.3889L257 79.6111L258 80.1945L260 81.3889L262 82.6111L263 83.1945L264 83.8055L265.944 84.9445L266.5 85.3055L268 86L267.222 86.7222L266.694 86.75L265.889 86.9445L264.972 86.9722L264 87L263 87L261 87L259 87.0278L257 87.3055L255.056 88.0278L254.5 88.3333L253 89L254 90L254 92L270 92L273 92L274 92L276 92.0278L278 92.3055L280 93.0833L281 93.6389L283 94.75L284 95.2222L285 95.7778L286 96.2222L288 97.25L290 98.3889L292 99.6111L293 100.194L295 101.389L297 102.611L298 103.194L300 104.389L302 105.611L302.944 106.139L303.944 106.75L304.5 107L306 108L306 113L285 113L277 113L275 113L273 113.028L272 113.083L270.056 113.389L268.5 113.75L267 114L267 118L268.5 118L306 118L306 174L306 189L306 192L306 194L305.972 196L305.944 196.944L305.75 197.944L305.722 198.5L305 200L304.278 199.222L304.25 198.694L304.056 197.889L304.028 196.972L304 195L304 193L304 190L304 168L304 165L304 163L304 162L303.889 160L303.667 159L302.667 157L301.889 156L300 154L299 153L296 150L284 138L281 135L280 134L278 132.111L276 130.722L275 130.333L274 130.111L272 130L271 130L268 130L256 130L213 130L188 130L184 130L182 130L180 130.028L179 130.111L177 130.722L175 132.111L174 133.028L172 135L170 137L162 145L159 148L158 149L157 150L155.083 151.972L153.389 153.75L152.667 154.5L151.833 155.083L151.417 155.472L150 156L150 198L149.278 197.222L149.25 196.694L149.056 195.889L149.028 194.972L149 193L149 192L149 189L149 172L149 108L150.5 107L151.056 106.75L153 105.611L155 104.389L156 103.833L156.944 103.278L157.944 102.833L158.5 102.5L160 102L161 103.5L161.25 104.056L162.472 106L164.083 108L165.028 109L166 109.972L167 110.917L169 112.528L171 113.722L172 114.167L173 114.611L174 114.972L176 115.667L177 116L179 116.583L180 116.75L181 116.833L183 116.611L184 116.361L186 115.861L187 115.611L189 114.972L190 114.583L192 113.583L194 112.306L195 111.583L196.917 109.917L198.583 108L199.972 106L200.583 105L201.583 103L201.972 102L202.667 100L203.306 98L203.583 97L203.917 95L203.944 94L203.917 93L203.583 91L203.306 90L202.611 88L202.167 87L201.75 86L201.222 85L200.778 84L200.25 83L199.861 82.0555L199.278 80.5L199 79L200.5 78.3333L201.056 78L202.056 77.5L204 76.4722L205 75.9445L206 75.3611L207 74.8055L208 74.1945L209 73.6111L211 72.3889L213 71.1945L214 70.6111L216 69.3889L217 68.8055L218 68.1945L220 67.0555L221 66.5278L223 65.4722L224 64.9445L225.944 63.8889L226.5 63.5278L228 63M164 66L164.028 67.5L164.25 69.0278L164.5 69.9167L165.444 71.5278L167 73L168 73L170 72L169.917 70.5L169.556 69L169.139 68.0555L168.972 67.5L168 66L164 66M194 66L193.417 68.0555L193.139 69.9445L193.278 71.5L194 73L195.472 72.6389L196.806 71.6667L197.5 70.8889L198.056 70.0278L198.722 68.5L199 67L197.5 66.2778L197 66.25L196 66.0555L194 66M153 77L153 81L154.5 81.9722L155.056 82.1389L156 82.5555L157.5 82.9167L159 83L160 82L160 79L158.5 78.0278L156.944 77.4445L155.056 77.0833L153 77M177 77.25L178 77.0833L179 77.0278L181 77L183 77.0278L184 77.0833L186 77.4167L188 78.0833L190 79.0833L192 80.4167L193.917 82.0833L194.75 83.0278L195.528 84L196.139 85L196.722 86L197.556 88L197.833 89L198.361 91L198.611 92L198.889 94L198.889 95L198.611 97L198.361 98L198.111 99L197.389 101L196.889 102L195.583 104L194.778 105L192.972 106.917L192 107.75L191 108.528L189 109.722L188 110.167L186 110.972L184 111.583L182 111.889L181 111.889L179 111.583L177 111L176 110.667L174 109.972L173 109.583L171 108.5L169.083 106.917L167.472 105L166.25 103L165.778 102L164.861 100L164.472 99L164.083 97L164 95L164 94L164 93L164.083 91L164.472 89L164.861 88L165.778 86L166.25 85L166.861 84L168.25 82.0833L170.028 80.4722L172 79.25L173 78.7778L174 78.25L176 77.4722L177 77.25M202 81L204.056 82.3055L205.056 82.6111L206.972 82.25L207.889 81.6667L209.278 80.0278L209.889 78.5L210 77L208.5 77L206.944 77.0833L205.083 77.5L203.5 78.4445L202.528 79.5833L202 81M149 92L149 96L150 97L152.056 96.9167L153.944 96.5833L156 96L156 92L149 92M206 95L207.5 96.1389L209.056 96.6945L210 96.7778L210.972 96.6389L211.889 96.2778L212.667 95.7222L213.639 94.4722L214 93L212.5 92.2778L211.944 92.25L210.944 92.0555L209.083 92.1111L207.5 92.6667L206.528 93.6111L206 95M224 101L224.25 103L224.278 103.556L225 105L228.056 105L230 105L232 104.972L232.972 104.889L233.889 104.667L234.667 104.278L235.278 103.722L235.667 102.944L236 101L233.944 100.417L232 100.083L231 100.028L230 100L228 100.083L227.056 100.222L226.056 100.417L224 101M243 101L243 104L244 105L272 105L277 105L279 105L281 105L282 104.972L283 104.889L283.944 104.722L285.5 104.139L287 103L286.222 101.611L284.889 100.667L283 100.111L282 100.028L281 100L279 100L276 100L255 100L251 100L249 100L247 100.028L246.056 100.056L245.056 100.25L244.5 100.278L243 101M153 107L153.056 109L153.25 110L153.278 110.5L154 112L155.5 111.722L157.028 111.056L157.889 110.5L159.278 108.972L159.889 107.5L160 106L157.944 106.028L156.944 106.083L155.056 106.417L153 107M203 106L203 110L204 110L206 112L207.444 111.75L208.556 111.417L210 111L209.667 108.972L209.278 108.056L207.889 106.722L206.056 106.111L204.5 106L203 106M167 115L165.611 116.5L164.667 118.056L164.167 119.944L164.278 121.5L165 123L166.5 122.639L167.944 121.667L169.278 119.972L169.778 118.083L169.333 116.5L168.722 115.917L167 115M194 115L193.278 116.5L193.25 117.056L193.083 118.056L193.333 119.972L193.722 120.889L195.056 122.278L195.972 122.667L198 123L198.5 120.944L198.417 119L198.083 118.056L197.222 116.5L196 115L194 115M180 119L179.278 120.5L179.25 121.056L179.056 122.056L179.056 123.944L179.25 124.944L179.278 125.5L180 127L181.472 126.639L182.722 125.667L183.667 123.972L183.889 123.056L184 121.5L184 120L182.556 119.583L181.444 119.25L180 119M184 135L183.639 136.5L182.667 138.056L181.889 139L180.972 140L179 142L178 143L176 145L174.111 146.944L173.306 147.944L172.778 148.5L172 150L217 150L231 150L234 150L235 150L237 149.972L238 149.889L240 149.278L241 148.667L242 147.889L244 146L246 144L249 141L250 140L252 138.028L254 136.333L256 135.333L257 135.111L258 135.028L259 135L261 135L262 135L264 135L270 135L269.472 136.5L268.5 138.056L266.917 140L265 142L263 144L262 145L259 148L257 150L256 151L254 153L253 153.972L251 155.667L250 156.278L249 156.667L247 156.972L245 157L243 157L240 157L221 157L158 157L158.361 155.5L159.333 153.944L161.028 152L162 151L163 150L166 147L171 142L173 140L175 138.028L176 137.111L178 135.722L180 135.111L180.944 135.028L182.5 135L184 135M200 135L200 137L199 138L191 138L191 136L192 135L200 135M216 135L215.222 136.389L213.889 137.333L212 137.889L211 137.972L210.056 138L209.056 138L207 138L207.778 136.611L209.111 135.667L211 135.111L212 135.028L212.944 135L213.944 135L216 135M231 135L230.222 136.389L228.889 137.333L227 137.889L226.056 137.972L225.056 138L223 138L223 136L224 135L231 135M247 135L247 137L246 138L238 138L238 136L239 135L247 135M295 157L258 157L258.361 155.5L259.333 153.944L260.111 153L261.028 152L262 151L264 149L266 147L269 144L271 142L273 140.111L274 139.333L275 138.75L277 138.444L279 139.333L280 140.111L281 141.028L283 143L284 144L287 147L289 149L290 150L291.972 152L292.889 153L293.667 153.944L294.639 155.5L295 157M193 143L192.222 143.972L191.694 144.139L190.889 144.556L189 144.917L187.056 145L186.056 145L184 145L184 143L193 143M208 143L207.222 144.139L206.694 144.333L205.889 144.722L204.972 144.889L203.056 144.944L202.056 144.75L201.5 144.722L200 144L200.778 143.278L201.306 143.25L202.111 143.056L203.028 143.028L204.944 143L205.944 143L208 143M224 143L223.222 143.972L222.694 144.139L221.889 144.556L220 144.917L218.056 145L216 145L216 143L224 143M240 143L239.222 144.139L238.694 144.333L237.889 144.722L236 144.972L234.056 145L233.056 145L231 145L231 143L240 143M248 162L249 163L249 207L187 207L187 169L186 168L163 168L162 169L162 206L160.5 205.5L159.944 205.167L158.944 204.722L157.111 203.528L155.722 201.917L155.333 200.972L155.111 200L155 198L155 197L155 195L155 190L155 162L248 162M299 163L299 192L299 196L299 198L298.917 200L298.5 201.917L297.5 203.528L296.75 204.167L294.972 205.361L294 205.917L292 206.694L291 206.889L290 206.972L288 207L287 207L284 207L254 207L254 163L255 162L282 162L290 162L292 162L293 162L295 162.083L295.944 162.222L296.944 162.417L299 163M204 168L204 197L231 197L232 196L232 169L231 168L204 168M262 169L262 196L263 197L291 197L291 169L288.944 168.417L287.944 168.222L287 168.083L285 168L284 168L282 168L276 168L270 168L268 168L266 168.083L265.056 168.222L264.056 168.417L262 169M182 173L182 207L167 207L167 174L169.056 173.417L170.056 173.222L171 173.083L173 173L174 173L176 173L182 173M226 173L227 174L227 180L209 180L209 173L226 173M274 173L274 192L268 192L268 174L269 173L274 173M285 173L286 174L286 191L285 192L280 192L279 191L279 174L280 173L285 173M226 185L227 186L227 191L226 192L209 192L209 185L226 185M174 212L282 212L281.222 213.056L280.694 213.389L279.889 214.028L278 215.083L277 215.5L276 215.75L275 215.917L273 216L272 216L270 216L265 216L245 216L241 216L239 216L237 216L236 216.028L235 216.111L234 216.306L232.056 217.028L231.5 217.333L230 218L231 219L231 221L265 221L264.222 222.417L263.694 222.806L262.889 223.583L261.972 224.167L260 225.389L258 226.611L257 227.167L256 227.75L254 228.778L253 229.25L252 229.833L251 230.389L249 231.611L247 232.806L246 233.389L244 234.611L243 235.194L242 235.806L241 236.361L240 236.944L239 237.472L237 238.528L236 239.056L235 239.639L233 240.75L232 241.25L231.056 241.806L229.5 242.778L228 244L226.5 243.306L224.944 242.361L223 241.25L222 240.75L220 239.639L219 239.056L218 238.528L216 237.472L215 236.944L214 236.361L212 235.194L211 234.611L209.028 233.389L207.333 232.222L206.722 231.583L206.361 231.222L206 230L230 230L230 226L229 225L206 225L201 225L199 225L198 225L196 224.917L194 224.5L193 224.083L192 223.583L190 222.389L188 221.25L187 220.75L185 219.611L183 218.389L181 217.25L180 216.778L178 215.75L177 215.167L175.056 214.056L174.5 213.694L173 213L174 212M205 216L204 217L204 221L206.056 221L207.056 221L208 220.972L208.944 220.944L209.944 220.75L210.5 220.722L212 220L212 217L211 216L205 216M242 225L241 226L241 230L243.056 230L244.056 230L245 229.972L245.944 229.944L246.944 229.75L247.5 229.722L249 229L249 226L248 225L242 225z"/>
<path style="fill:#60d9d9; stroke:none;" d="M371 262L372.5 261.75L374.056 261.417L376 261.306L378 261.611L380 261.889L381 261.889L383 261.611L383.944 261.389L384.944 261.222L385.5 261.083L387 261L385.5 262.167L384.944 262.417L383.944 262.944L382 263.556L380 263.694L379 263.583L377.056 263.222L375.5 263.028L374 263L374.361 264.222L375.333 265.111L376.111 265.528L378 266.139L380 266.528L381 266.556L382 266.5L384 265.972L385 265.583L386 265.083L387 264.5L388.889 262.972L389.694 262.028L390.222 261.5L391 260L389.5 259.556L388.944 259.333L387.944 259L387 258.694L385 258.306L383 258.417L382 258.583L380 258.694L378 258.417L377 258.306L376 258.306L374.028 258.722L372.333 259.583L371.361 260.611L371 262M259 268L259.361 269.417L260.333 270.639L262.028 272L263.917 273.417L265.583 275.083L266.917 277L267.917 279L268.306 280L268.667 281L269.306 283L269.583 284L269.917 286L269.972 287L270 289L269.917 291L269.583 293L268.972 295L268.167 297L267.722 298L266.528 300L264.917 302L263.972 302.972L262 304.75L261 305.5L259 306.5L258 306.75L256 306.972L254 307L253 307L251 306.917L249 306.5L248 306.056L247 305.5L245.028 303.917L244.083 302.972L242.417 301L241.722 300L241.083 299L240.083 297L239.417 295L239 293L238.611 291L238.389 290L238.167 288L238.389 286L238.639 285L239.139 283L239.389 282L240.028 280L240.417 279L241.5 277L243.083 275.028L245 273.25L246 272.472L248 271.278L249.944 270.472L251.5 270.083L253 270L253 275L254.5 275.083L256.056 275.5L258 276.5L258.972 277.25L259.917 278.083L261.528 280L262.139 281L263.139 283L263.528 284L263.75 285L263.917 286L264 288L263.972 290L263.917 291L263.528 293L262.722 295L262.139 296L261.528 297L260.75 297.972L258.972 299.75L257 301.056L256 301.5L254 301.833L252 301.5L250 300.5L248.111 298.917L246.639 297L246.111 296L245.694 295L245 293L244.417 291L244.222 290L244.111 289L244.111 288L244.389 286L244.639 285L244.861 284L245.472 282L246.5 280L247.222 279L248.694 277.056L249.639 275.5L250 274L248.5 274.361L247.944 274.722L246.083 276.111L244.5 278L243.417 280L242.694 282L242.417 283L242.083 285L242 287L242 288L242 289L242.028 291L242.083 292L242.417 294L242.694 295L243.417 297L244.5 299L246.083 300.917L248 302.5L250 303.5L252 303.917L253 303.972L255 304L257 303.917L259 303.5L259.972 303.056L260.917 302.5L262.583 300.917L263.306 299.972L264.583 298L265.5 296L265.778 295L266 294L266.389 292L266.611 291L266.889 289L266.889 288L266.778 287L266.611 286L266.194 284L266 283L265.528 281L264.722 279L264.139 278L263.528 277.028L262.75 276.083L260.972 274.5L260 273.917L259 273.417L257.056 272.667L256.5 272.444L255 272L255 267L253.5 267L252.944 267.028L251 267.222L250 267.417L249 267.694L247 268.417L245 269.417L244 270.028L243.028 270.694L242.083 271.417L240.472 273.083L239.861 274.028L238.778 276L238.25 277L237.833 278L237.389 279L236.694 281L236.417 282L236.083 284L236 286L236 288L236 290L236.028 291L236.083 292L236.389 294L236.861 296L237.444 298L238.278 300L238.833 301L239.389 302L240.694 303.917L242.222 305.583L244.028 306.972L245 307.583L247 308.583L248 308.972L250 309.583L252 309.917L253 309.972L254 310L256 309.917L258 309.583L260 308.972L262 308.167L263 307.722L264.972 306.528L266.778 304.917L268.306 303L268.972 302L269.583 301L270.583 299L271.306 297L271.583 296L271.778 295L271.917 294L272.083 292L272.306 290L272.389 289L272.389 288L272.306 287L272.083 285L271.917 283L271.778 282L271.583 281L271.306 280L270.583 278L269.583 276L268.306 274L267.583 273.028L266.778 272.083L264.972 270.472L264 269.861L263 269.278L262.056 268.861L260.5 268.278L259 268M342 268L342.361 269.417L342.722 269.833L343.333 270.667L345.028 272.222L346 273.083L346.972 274.028L347.917 275L349.528 277L350.139 278L350.722 279L351.528 281L351.778 282L352 283L352.389 285L352.611 286L352.917 288L352.917 290L352.778 291L352.361 293L352.139 294L351.556 296L351.139 297L350.722 298L350.139 299L349.528 300L347.917 302L346.972 302.972L345 304.75L344 305.5L342 306.5L341 306.75L340 306.917L338 307L337 307L336 307L334 306.917L333 306.75L332 306.5L330 305.5L328 303.917L327.028 302.972L326.083 302L324.472 300L323.861 299L323.278 298L322.861 297L322.167 295L321.861 294L321.389 292L321.083 290L321.028 289L321.083 287L321.389 285L321.639 284L322.167 282L322.444 281L322.861 280L323.278 279L323.861 278L324.472 277L326.083 275L327.028 274.028L329 272.306L330 271.639L331 271.111L332.944 270.417L334.5 270.083L336 270L336 275L337.5 275.083L339.056 275.5L341 276.5L341.972 277.25L343.75 279.028L344.5 280L345.583 282L346.306 284L346.583 285L346.917 287L346.972 288L346.917 290L346.778 291L346.583 292L345.972 294L345.583 295L344.5 297L342.917 298.917L341 300.5L340 301.056L339 301.5L337 301.833L335 301.5L333 300.5L331.083 298.917L329.5 297L328.417 295L327.694 293L327.417 292L327.083 290L327 288L327.083 286L327.472 284L327.861 283L328.278 282L329.444 280L330.139 279L331.306 277.056L331.889 275.5L332 274L330.528 274.361L329.167 275.333L328.417 276.111L327.083 278L326.083 280L325.417 282L325 284L324.639 286L324.472 287L324.472 289L324.639 290L324.944 292L325.056 293L325.417 295L326.083 297L326.556 298L327.083 298.972L327.722 299.917L329.222 301.528L330.083 302.139L331.028 302.722L333 303.528L335 303.917L336 303.972L338 303.972L339 303.917L341 303.528L341.972 303.139L342.917 302.722L344.583 301.528L345.972 299.917L346.611 298.972L347.167 298L348.139 296L348.528 295L348.75 294L348.917 293L349 291L349 290L349 288L349 286L348.917 284L348.75 283L348.528 282L348.139 281L347.167 279L346.611 278.028L345.972 277.083L344.583 275.417L342.917 274.083L341.056 273.083L340.056 272.694L339.5 272.444L338 272L338 267L336.5 267L335.944 267.028L334 267.222L333 267.417L332 267.694L330 268.389L328 269.278L326 270.472L325.028 271.25L324.083 272.083L322.472 274L321.861 275L320.833 277L320.389 278L319.694 280L319.417 281L319.083 283L319 285L319 286L319 288L319 290L319 291L319 292L319.083 294L319.417 296L319.694 297L320.417 299L321.417 301L322.028 302L323.417 303.972L324.222 304.917L326.028 306.528L327 307.139L329 308.167L330 308.611L332 309.306L333 309.583L335 309.917L336 309.972L338 309.972L339 309.917L341 309.583L342 309.306L344 308.583L345 308.111L346.972 306.972L348.778 305.583L350.306 303.917L351.611 302L352.167 301L352.722 300L353.611 298L353.972 297L354.583 295L354.917 293L355 291L355 290L355 288L355 286L354.917 284L354.583 282L353.972 280L353.167 278L352.722 277L351.611 275.028L350.972 274.083L349.583 272.389L348.778 271.639L347.917 270.861L346 269.472L345.056 268.944L343.5 268.278L342 268M60 268L60 309L87 309L88 310L88 319L96 319L96 309L96 307L96 306L95.9722 305L95.9444 304.056L95.75 303.056L95.7222 302.5L95 301L93.8611 301.778L93.6667 302.306L93.2778 303.111L93.1111 304.028L93.0278 305L93 306L93 308L93 309L93 311L93 317L90 317L90 307L62 307L62 270L66 270L66 304L90 304L90 268L82 268L82 298L84 298L84 270L88 270L88 301L68 301L68 268L60 268M104 268L104 309L113 309L113.694 307.5L114.056 306.944L115.194 305L115.806 304L116.389 303L117.611 301L118.75 299L119.25 298L120.389 296L121.611 294L122.806 292L123.389 291L124.611 289L125.194 288L126.389 286L127.611 284L128.806 282L129.389 281L130.611 279L131.167 278L131.722 277.056L132.167 276.056L132.5 275.5L133 274L133.722 275.5L133.75 276.056L133.944 277.056L133.972 278L134 280L134 282L134 286L134 307L131 307L131 285L129.778 285.778L129.444 286.306L128.5 288.028L128.083 290L128 292L128 293L128 295L128 309L136 309L136 268L134.583 268.361L133.361 269.333L132.694 270.111L131.389 272L130.806 273L129.611 275L128.389 277L127.806 278L126.611 280L125.389 282L124.806 283L123.611 285L122.389 287L121.25 289L120.75 290L119.611 292L118.389 294L117.806 295L116.611 297L115.389 299L114.806 300L113.611 302L112.417 303.944L111.889 304.944L111.528 305.5L111 307L106 307L106 270L110 270L110 302L111 301.222L111.25 300.694L111.861 299.889L112.389 298.972L113.611 297L114.75 295L115.25 294L116.389 292L117.611 290L118.194 289L119.389 287L120.611 285L121.194 284L122.389 282L123.611 280L124.194 279L125.389 277L126.611 275L127.194 274L127.806 273L128.361 272L128.917 271.056L129.361 270.056L129.667 269.5L130 268L128.583 268.111L127.417 268.722L126.194 270.111L125 272L123.806 274L123.194 275L122.611 276L121.389 278L120.806 279L119.611 281L118.389 283L117.806 284L116.611 286L115.389 288L114.833 289L114.278 290L113.861 290.944L113.278 292.5L113 294L112.278 292.5L112.25 291.944L112.056 290.944L112.028 290L112 288L112 286L112 283L112 268L104 268M164 268L164 277L162.5 277.028L160.944 277.25L160 277.472L158 278.25L157 278.778L155.083 279.861L154.25 280.472L153.472 281.25L152.278 283.028L151.472 285L151.083 287L151.056 288L151.222 290L151.722 292L152.111 293L153.306 294.917L154.111 295.778L155 296.611L156.667 298.167L157.639 299.528L158 301L156.5 300.5L155.944 300.167L154.944 299.722L153.083 298.528L152.222 297.75L151.417 296.917L150.028 295L148.917 293L148.5 292L148.25 291L148.028 289L148 288L148.083 286L148.5 284L148.944 283L149.5 282L151.083 280L153 278.083L154 277.25L155 276.5L157 275.472L157.972 275.139L159.667 274.361L160.639 273.389L161 272L159.5 272.028L157.944 272.25L157 272.472L155 273.25L154 273.778L153 274.25L151.028 275.472L149.25 277.083L148.472 278.028L147.278 280L146.444 282L146.167 283L145.639 285L145.389 286L145.167 288L145.389 290L145.639 291L145.861 292L146.444 294L146.861 295L147.278 296L148.472 297.972L150.083 299.778L151.028 300.583L153 301.917L155 302.917L157 303.583L157.944 303.778L159.5 303.972L161 304L161 296L159.5 295.5L158.944 295.167L157.972 294.722L156.25 293.528L154.944 291.917L154.5 290.972L154.083 289L154.111 287L154.722 285L155.333 284.028L157.028 282.25L158 281.5L160 280.417L162 279.694L162.944 279.417L163.944 279.222L164.5 279.083L166 279L166 270L170 270L170 286L164 286L164 309L172 309L172 299L173.5 298.972L175.056 298.778L176 298.583L177 298.306L179 297.583L180.972 296.5L182.75 294.917L184.056 293L184.5 292L184.75 291L184.917 290L185 288L184.917 286L184.75 285L184.5 284L184.056 283L182.75 281.083L181.917 280.222L180.111 278.611L179.333 277.833L178.361 276.472L178 275L179.5 275.5L180.056 275.833L181.056 276.278L182.972 277.472L184.75 279.083L185.528 280.028L186.722 282L187.139 283L187.528 284L187.75 285L187.972 287L188 288L187.917 290L187.75 291L187.528 292L187.139 293L186.722 294L185.528 295.972L184.75 296.917L182.972 298.528L182 299.139L181 299.722L180 300.167L178.111 301.083L177.333 301.583L176.361 302.611L176 304L177.5 303.917L179.056 303.583L181 302.972L182 302.583L184 301.5L185.972 299.917L186.917 298.972L188.5 297L189.583 295L189.972 294L190.306 293L190.583 292L190.917 290L191 288L190.972 287L190.917 286L190.583 284L190.306 283L189.583 281L188.5 279L186.917 277.028L185.972 276.083L185 275.25L184 274.5L182 273.417L181 273.028L179.056 272.417L178.056 272.222L177.5 272.083L176 272L176 280L178.056 281.472L179.889 283.083L181.361 285L182.194 287L182.306 289L182.056 290L181.694 290.972L180.528 292.75L179.75 293.528L177.972 294.722L176 295.611L175 295.972L173.056 296.583L171.5 296.917L170 297L170 307L166 307L166 289L172 289L172 268L164 268M200 268L200 309L208 309L208 290L210.056 290L211.056 290L213 290L215 289.917L216 289.778L218 289.278L219.917 288.361L221.5 286.889L222.5 285L222.917 283L222.972 281L222.75 279L222.5 278L221.5 276.111L219.917 274.639L218 273.722L217 273.417L215 273.083L214 273.028L212 273L210 273L206 273L206 284L208 284L208 276L219 276L219.5 277.5L220.139 279.056L220.444 280L220.417 282L220.028 283L219.5 283.972L217.917 285.667L216 286.667L215 286.889L214 286.972L213 287L211 287L209.056 287L206 287L206 307L202 307L202 270L211 270L213 270L214 270L216 270.083L218 270.472L220 271.278L221 271.861L222.917 273.25L224.5 275.028L225.528 277L226.111 279L226.389 281L226.389 282L226.278 283L226.111 284L225.528 286L224.5 287.972L223.75 288.917L221.972 290.5L221 291.083L219 291.972L217 292.583L215 292.917L214.056 292.972L213.056 293L211 293L211 295L214.056 295L215 295L217 294.972L218 294.917L220 294.583L222 293.889L223.972 292.694L225.75 290.972L226.5 290L227.083 289L227.972 287L228.583 285L228.778 284L228.917 283L228.972 281L228.917 280L228.778 279L228.306 277L227.583 275L227.083 274L226.5 273.028L225.75 272.083L223.972 270.472L223 269.861L222 269.278L220 268.472L218 268.083L216 268L215 268L213 268L200 268M281 268L281 309L295 309L297 309L298 309L299 309L301 308.917L303 308.528L304 308.139L305 307.722L306 307.139L306.972 306.528L307.917 305.75L309.5 303.972L310.5 302L311 300L311.306 298L311.389 297L311.389 296L311.306 295L311 293L310.5 291L309.5 289.028L307.917 287.25L306.972 286.472L305.056 285.278L304.056 284.833L303.5 284.5L302 284L302.806 282.5L303.306 280.944L303.5 280L303.417 278L302.5 276.111L301.75 275.306L299.972 274.111L298 273.417L296 273.083L294 273L292 273L290.056 273L287 273L287 291L291 291L293 291L294 291L296 291.083L297 291.25L298 291.5L299.972 292.5L300.889 293.25L301.667 294.083L302.25 295.028L302.556 297L301.667 298.889L299.972 300.278L299 300.667L298 300.889L296 301L294 301L290 301L290 298.944L289.972 297.944L289.944 297.056L289.75 296.056L289.722 295.5L289 294L287.861 294.778L287.667 295.306L287.278 296.111L287.028 298L287 300L287 300.944L287 304L292 304L294 304L295 304L297 303.972L298 303.917L300 303.583L301 303.278L302.889 302.361L304.361 300.889L304.889 299.972L305.278 299L305.556 298L305.694 297L305.556 295L305.278 294L304.361 292.083L303.694 291.25L301.972 289.944L301 289.5L299 289.083L297 289L296 289L294 289L290 289L290 276L300 276L301 277L300.889 278.5L300.667 279.056L300.278 280.028L298.889 281.667L297.972 282.278L297 282.694L295.111 283.306L294.333 283.667L293.361 284.611L293 286L295.056 286L296.056 286L297 286L299 286.083L301 286.472L302 286.861L303 287.278L304.917 288.472L306.528 290.083L307.722 292L308.528 294L308.889 296L308.889 297L308.5 299L307.5 301L306.75 302L304.972 303.889L304 304.694L302 305.889L300 306.583L298 306.917L297 306.972L296 307L294 307L293 307L291 307L284 307L284 270L288 270L291 270L293 270L294 270L296 270.083L298 270.417L299 270.694L301 271.417L302.972 272.5L304.75 274.083L306.056 276L306.5 277L306.75 278L306.917 279L307 280.944L307 283L309 283L309 279.944L308.972 278L308.75 276L308.5 275L307.5 273.028L306.75 272.083L304.972 270.472L304 269.861L302 268.861L301 268.472L300 268.25L299 268.083L297 268L295 268L294 268L292 268L287 268L281 268M364 268L364 309L373 309L374.056 307.5L374.389 306.944L375.611 305L376.806 303L377.389 302L378.611 300L379.194 299L380.389 297L381.611 295L382.75 293L383.25 292L383.833 291L385 289L385.611 288L386.806 286L387.389 285L388.611 283L389.194 282L390.389 280L391.583 278L392.083 277.056L392.722 275.5L393 274L393.722 275.5L393.75 276.056L393.944 277.056L393.972 278L394 280L394 282L394 286L394 307L391 307L391 285L390.028 285.778L389.861 286.306L389.444 287.111L389.083 289L389 291L389 292L389 294L389 309L397 309L397 268L395.583 268.111L394.361 268.722L393.028 270.111L391.806 272L390.611 274L389.389 276L388.806 277L387.611 279L386.389 281L385.25 283L384.75 284L383.611 286L382.389 288L381.194 290L380.611 291L379.389 293L378.806 294L377.611 296L376.389 298L375.806 299L374.611 301L374 302L372.917 303.944L372.278 305.5L372 307L367 307L367 270L370 270L370 302L371.222 301.222L371.583 300.694L372.222 299.889L373.389 298L374 297L375.194 295L375.806 294L376.389 293L377.611 291L378.194 290L379.389 288L380.611 286L381.75 284L382.25 283L383.389 281L384.611 279L385.806 277L386.389 276L387.611 274L388.806 272L389.944 270.056L390.306 269.5L391 268L389.528 268.111L388.167 268.722L386.694 270.111L385.389 272L384.806 273L383.611 275L382.389 277L381.194 279L380.611 280L379.389 282L378.25 284L377.75 285L376.611 287L375.389 289L374.222 290.889L373.583 291.694L373.222 292.222L372 293L372 268L364 268M69 324L69 326L70 327L89 327L89 352L85 352L85 330L63 330L63 340L63 342L63 343L63 344L62.9167 346L62.7778 347L62.5833 348L62.3056 349L61.6111 351L60.75 353L60.25 354L59.8611 354.944L59.2778 356.5L59 358L55 358L55 376L62 376L63 375L63 366L88 366L88 376L96 376L96 358L68 358L68.8056 356.5L68.9722 355.944L69.3611 354.944L69.6667 354L70 353L70.5833 351L70.9444 349L71.0556 348L71.2222 347L71.6111 345L71.9167 343L71.9722 342L72 340L71.8889 338.028L71.3333 336.333L70.3889 335.361L69 335L69 340L69 342L69 344L68.9167 346L68.6111 348L68.3611 349L68.1389 350L67.5556 352L66.75 354L66.2222 355L65.25 356.944L64.8333 357.944L64.5 358.5L64 360L93 360L94 361L94 373L90 373L90 363L61 363L60 364L60 373L57 373L57 360L58.4722 359.889L59.8333 359.278L60.5833 358.667L61.3056 357.889L62.5833 356L63.5833 354L64.3056 352L64.5833 351L64.8056 350L65.1944 348L65.3889 347L65.6111 346L65.9167 344L65.9722 343L66 341L66 339L66 332L83 332L83 355L91 355L91 324L69 324M104 324L104 366L113 366L113.528 364.5L113.889 363.944L114.417 362.944L115.611 361L116.194 360L117.389 358L118.611 356L119.806 354L120.389 353L121.611 351L122.194 350L123.389 348L124.611 346L125.75 344L126.25 343L127.389 341L128.611 339L129.194 338L130.389 336L131 335L132.083 333.056L132.722 331.5L133 330L133.722 331.5L133.75 332.056L133.944 333.056L133.972 334L134 336L134 338L134 342L134 363L131 363L131 342L129.778 342.778L129.444 343.306L128.5 345.028L128.083 347L128 349L128 350L128 352L128 365L129 366L136 366L137 365L137 339L137 334L137 332L137 331L137 329L136.972 328L136.944 327.056L136.75 326.056L136.722 325.5L136 324L134 324L133.306 325.5L132.944 326.056L131.806 328L131.194 329L130.611 330L129.389 332L128.25 334L127.75 335L126.611 337L125.389 339L124.194 341L123.611 342L122.389 344L121.806 345L120.611 347L119.389 349L118.806 350L117.611 352L116.389 354L115.806 355L114.611 357L114 358L112.917 359.944L112.278 361.5L112 363L106 363L106 327L110 327L110 358L111.222 357.222L111.583 356.694L112.222 355.889L113.389 354L114 353L115.194 351L115.806 350L116.389 349L117.611 347L118.194 346L119.389 344L120.611 342L121.194 341L122.389 339L123.611 337L124.75 335L125.25 334L126.389 332L127.611 330L128.722 328L129.139 327.056L129.722 325.5L130 324L128.583 324.361L127.361 325.333L126.028 327.028L125.389 328L124.806 329L123.611 331L122.389 333L121.25 335L120.75 336L119.611 338L118.389 340L117.194 342L116.611 343L115.389 345L114.278 346.944L113.833 347.944L113.5 348.5L113 350L112.278 348.5L112.25 347.944L112.056 346.944L112.028 346L112 344L112 342L112 339L112 324L104 324M146 340L147.389 339.639L148.417 338.667L148.917 337.889L149.833 336L150.278 335L150.861 334L151.472 333L153.083 331.028L155 329.25L156 328.5L158 327.417L159 327.028L161 326.417L163 326.083L164 326.056L165 326.083L167 326.417L169 327L169.944 327.306L171.5 327.75L173 328L172 329L172 331L169.944 330.389L168.944 330.139L168 329.861L167 329.639L166 329.389L164 329.111L163 329.111L161 329.472L160 329.861L158 330.861L157.028 331.472L155.25 333.083L154.472 334.028L153.278 336L152.861 337L152.472 338L152.25 339L152.083 339.944L152 341.5L152 343L146 343L146 346.056L146 348L146.028 350L146.083 351L146.417 353L146.694 354L147.417 356L148.417 358L149.028 359L149.694 359.972L150.417 360.917L152.083 362.583L154 363.917L156 364.917L158 365.667L160 366.306L162 366.694L164 366.583L166 366.222L167 366.056L168 365.944L170 365.583L171 365.306L173 364.611L173.944 364.194L174.944 363.806L175.5 363.5L177 363L176.722 361.5L176.139 359.944L175.778 359.056L175.222 358.056L175 357.5L174 356L172.5 356.083L170.944 356.472L169 357.167L168 357.528L166 357.917L165 357.972L164 357.972L163 357.917L161 357.5L159.028 356.5L157.25 354.917L156.5 353.972L155.917 353L155.417 352L154.583 350.111L154.139 349.333L153.222 348.361L152 348L152.028 349.5L152.25 351.056L152.472 352L152.861 353L153.861 355L155.25 356.972L156.083 357.889L158 359.361L160 360.278L161 360.583L163 360.917L164 360.972L166 360.917L168 360.583L170 360.083L170.944 359.917L172.5 359.833L174 360L174 362L172.5 362.25L171.944 362.417L170.944 362.694L169 363.306L168 363.583L166 363.917L164 364L163 363.972L162 363.917L160 363.528L158 362.722L156 361.528L155 360.75L153.083 358.972L151.472 357L150.861 356L150.278 355L149.861 354L149.167 352L148.639 350L148.389 349L148.083 347.056L148.028 346.5L148 345L154 345L154.028 343.5L154.222 341.944L154.417 341L155.083 339L156.083 337L157.417 335.083L159.083 333.5L161 332.5L162 332.25L163 332.083L165 332.028L167 332.306L168 332.611L169.944 333.389L170.944 333.694L171.5 333.889L173 334L174 332.5L174.222 331.944L174.778 330.944L175.139 330.056L175.722 328.5L176 327L174.5 326.5L173.944 326.194L172.944 325.806L172 325.389L170 324.694L169 324.417L167 324.083L165 324L164 324L163 324L162 324L160 324.083L159 324.25L158 324.472L157 324.861L156 325.278L154 326.472L152.028 328.083L151.083 329.028L150.25 330L149.472 331L148.278 333L147.833 334L147.389 335L146.694 336.944L146.25 338.5L146 340M191 324L191 327L214 327L214 363L211 363L211 330L185 330L185 366L193 366L193 335L191 335L191 363L187 363L187 332L208 332L208 366L216 366L216 324L191 324M228 324L227 325L227 365L228 366L253 366L253 358L236 358L236 343L250 343L250 345L246.944 345L245 345L243 345.028L242.028 345.111L240.333 345.667L239.361 346.611L239 348L252 348L252 340L233 340L233 360L251 360L251 363L230 363L230 327L250 327L250 330L233 330L233 337L236 337L236 332L253 332L253 324L228 324M260 324L259 325L259 332L267 332L267 330L262 330L262 327L270 327L270 366L278 366L279 365L279 327L287 327L287 330L282 330L282 332L289 332L289 324L276 324L276 363L273 363L273 324L260 324M296 324L296 333L296 335L296 336L296.083 338L296.389 340L296.639 341L296.861 342L297.472 344L297.944 345L298.5 346L300.083 347.889L301.028 348.694L302 349.361L303 349.889L304 350.278L305 350.583L307 351L309 351.389L310 351.611L312 351.917L313 351.944L314 351.917L316 351.611L317 351.389L319 351.056L320 350.944L321.944 350.583L324 350L324 363L321 363L321 354L318 354L318 366L326 366L326 347L324.5 347.083L323.944 347.222L322.944 347.389L322 347.611L321 347.806L319 348.194L317 348.611L315 348.917L314 348.972L312 349L310 348.917L309 348.778L308 348.583L306 347.917L304.028 346.917L303.083 346.278L301.472 344.778L300.861 343.917L299.861 342L299.472 341L299.25 340L299.083 339L299 337L299 335L299 334L299 332L299 327L302 327L302 332L302 334L302 335L302.028 337L302.083 338L302.417 340L302.722 341L303.639 342.889L304.306 343.694L306.028 344.889L308 345.583L310 345.917L311 345.972L313 346L314 346L316 345.917L318 345.611L319 345.389L320 345.222L322 344.944L323.944 344.583L326 344L326 324L318 324L318 340L320 340L321 339L321 327L324 327L324 342L322.5 342.083L321.944 342.222L320.944 342.389L319 342.778L318 342.917L316 343.083L314 343.361L312 343.556L311 343.5L309 342.889L308.028 342.361L306.333 340.889L305.722 339.972L305.111 338L305.028 337L305 335L305 334L305 332L305 325L304 324L296 324M338 324L337 325L337 365L338 366L363 366L363 358L346 358L346 343L360 343L360 345L356.944 345L355 345L353 345.028L352.028 345.111L350.333 345.667L349.361 346.611L349 348L362 348L362 340L343 340L343 360L361 360L361 363L340 363L340 327L360 327L360 330L343 330L343 337L346 337L346 332L363 332L363 324L338 324M373 324L373 366L381 366L381 346L386 346L388 346L390 345.917L391.972 345.5L392.917 345.056L393.75 344.5L394.5 343.75L395.5 341.972L395.75 341L395.972 339L395.972 337L395.889 336L395.667 335L395.278 334L394.667 333.028L393.889 332.111L392 330.722L391 330.333L390 330.111L389 330.028L387 330L386 330L384 330L379 330L379 341L381 341L381 332L384.056 332L385 332L387 332.083L389 332.5L389.972 332.944L390.917 333.5L392.5 335.083L393.028 336.028L393.417 337L393.417 339L393.028 340L392.5 340.972L391.75 341.889L389.972 343.278L389 343.667L388 343.889L386 344L385 344L383 344L379 344L379 363L375 363L375 327L385 327L387 327L388 327L390 327.083L392 327.5L393 327.944L395 329.25L396.889 331.028L397.667 332L398.306 333L399.111 335L399.333 336L399.528 337L399.528 339L399.111 341L398.389 343L397.889 343.972L397.278 344.917L395.778 346.528L394.917 347.139L393.972 347.722L392 348.528L390 348.917L388.056 349L387.056 349L385 349L385 352L387.056 352L388.056 352L390 351.917L392 351.583L394 350.972L396 350.083L396.972 349.5L397.917 348.75L399.5 346.972L400.083 346L400.583 345L401.306 343L401.583 342L401.917 340L401.972 339L402 338L401.917 336L401.583 334L401.278 333L400.444 331L399.917 330.028L399.278 329.083L397.778 327.417L395.972 326.111L395 325.611L393 324.889L392 324.639L391 324.389L389 324.083L388 324.028L387 324L385 324L384 324L381 324L373 324z"/>
</svg>
